<?xml version="1.0" encoding="UTF-8" standalone="no"?>
<svg
   xmlns:dc="http://purl.org/dc/elements/1.1/"
   xmlns:cc="http://creativecommons.org/ns#"
   xmlns:rdf="http://www.w3.org/1999/02/22-rdf-syntax-ns#"
   xmlns:svg="http://www.w3.org/2000/svg"
   xmlns="http://www.w3.org/2000/svg"
   xmlns:sodipodi="http://sodipodi.sourceforge.net/DTD/sodipodi-0.dtd"
   xmlns:inkscape="http://www.inkscape.org/namespaces/inkscape"
   width="158"
   height="34"
   viewBox="0 0 158 34"
   fill="none"
   stroke-width="2"
   version="1.1"
   id="svg6"
   sodipodi:docname="logo.svg"
   inkscape:version="0.92.5 (2060ec1f9f, 2020-04-08)">
  <metadata
     id="metadata12">
    <rdf:RDF>
      <cc:Work
         rdf:about="">
        <dc:format>image/svg+xml</dc:format>
        <dc:type
           rdf:resource="http://purl.org/dc/dcmitype/StillImage" />
        <dc:title></dc:title>
      </cc:Work>
    </rdf:RDF>
  </metadata>
  <defs
     id="defs10" />
  <sodipodi:namedview
     pagecolor="#ffffff"
     bordercolor="#666666"
     borderopacity="1"
     objecttolerance="10"
     gridtolerance="10"
     guidetolerance="10"
     inkscape:pageopacity="0"
     inkscape:pageshadow="2"
     inkscape:window-width="2560"
     inkscape:window-height="1043"
     id="namedview8"
     showgrid="false"
     inkscape:pagecheckerboard="true"
     inkscape:zoom="2.4240506"
     inkscape:cx="79"
     inkscape:cy="17"
     inkscape:window-x="0"
     inkscape:window-y="0"
     inkscape:window-maximized="1"
     inkscape:current-layer="svg6" />
  <path
     d="M61.29 16.975C62.44 17.225 63.3233 17.725 63.94 18.475C64.5733 19.2083 64.89 20.1583 64.89 21.325C64.89 22.825 64.3317 23.9833 63.215 24.8C62.115 25.6 60.4817 26 58.315 26H50.265V8.49995H57.815C59.765 8.49995 61.2733 8.89162 62.34 9.67495C63.4233 10.4583 63.965 11.5666 63.965 13C63.965 13.9666 63.7233 14.7916 63.24 15.475C62.7733 16.1416 62.1233 16.6416 61.29 16.975ZM52.115 10.025V16.375H57.69C59.1067 16.375 60.1983 16.1083 60.965 15.575C61.7317 15.025 62.115 14.2333 62.115 13.2C62.115 12.1666 61.7317 11.3833 60.965 10.85C60.1983 10.3 59.1067 10.025 57.69 10.025H52.115ZM58.29 24.475C59.8567 24.475 61.04 24.2083 61.84 23.675C62.64 23.1416 63.04 22.3083 63.04 21.175C63.04 18.9916 61.4567 17.9 58.29 17.9H52.115V24.475H58.29Z M67.9877 12.85H69.7627V26H67.9877V12.85ZM68.8877 9.97495C68.521 9.97495 68.2127 9.84995 67.9627 9.59995C67.7127 9.34995 67.5877 9.04995 67.5877 8.69995C67.5877 8.36662 67.7127 8.07495 67.9627 7.82495C68.2127 7.57495 68.521 7.44995 68.8877 7.44995C69.2543 7.44995 69.5627 7.57495 69.8127 7.82495C70.0627 8.05828 70.1877 8.34162 70.1877 8.67495C70.1877 9.04162 70.0627 9.34995 69.8127 9.59995C69.5627 9.84995 69.2543 9.97495 68.8877 9.97495Z M73.9515 7.44995H75.7265V26H73.9515V7.44995Z M79.9154 7.44995H81.6904V26H79.9154V7.44995Z M85.8793 12.85H87.6543V26H85.8793V12.85ZM86.7793 9.97495C86.4126 9.97495 86.1043 9.84995 85.8543 9.59995C85.6043 9.34995 85.4793 9.04995 85.4793 8.69995C85.4793 8.36662 85.6043 8.07495 85.8543 7.82495C86.1043 7.57495 86.4126 7.44995 86.7793 7.44995C87.1459 7.44995 87.4543 7.57495 87.7043 7.82495C87.9543 8.05828 88.0793 8.34162 88.0793 8.67495C88.0793 9.04162 87.9543 9.34995 87.7043 9.59995C87.4543 9.84995 87.1459 9.97495 86.7793 9.97495Z M108.243 12.75C109.893 12.75 111.185 13.225 112.118 14.175C113.068 15.125 113.543 16.525 113.543 18.375V26H111.768V18.55C111.768 17.1833 111.435 16.1416 110.768 15.425C110.118 14.7083 109.193 14.35 107.993 14.35C106.626 14.35 105.551 14.775 104.768 15.625C103.985 16.4583 103.593 17.6166 103.593 19.1V26H101.818V18.55C101.818 17.1833 101.485 16.1416 100.818 15.425C100.168 14.7083 99.2348 14.35 98.0181 14.35C96.6681 14.35 95.5931 14.775 94.7931 15.625C94.0098 16.4583 93.6181 17.6166 93.6181 19.1V26H91.8431V12.85H93.5431V15.25C94.0098 14.45 94.6598 13.8333 95.4931 13.4C96.3265 12.9666 97.2848 12.75 98.3681 12.75C99.4681 12.75 100.418 12.9833 101.218 13.45C102.035 13.9166 102.643 14.6083 103.043 15.525C103.526 14.6583 104.218 13.9833 105.118 13.5C106.035 13 107.076 12.75 108.243 12.75Z M122.207 12.75C123.923 12.75 125.24 13.1833 126.157 14.05C127.073 14.9 127.532 16.1666 127.532 17.85V26H125.832V23.95C125.432 24.6333 124.84 25.1666 124.057 25.55C123.29 25.9333 122.373 26.125 121.307 26.125C119.84 26.125 118.673 25.775 117.807 25.075C116.94 24.375 116.507 23.45 116.507 22.3C116.507 21.1833 116.907 20.2833 117.707 19.6C118.523 18.9166 119.815 18.575 121.582 18.575H125.757V17.775C125.757 16.6416 125.44 15.7833 124.807 15.2C124.173 14.6 123.248 14.3 122.032 14.3C121.198 14.3 120.398 14.4416 119.632 14.725C118.865 14.9916 118.207 15.3666 117.657 15.85L116.857 14.525C117.523 13.9583 118.323 13.525 119.257 13.225C120.19 12.9083 121.173 12.75 122.207 12.75ZM121.582 24.725C122.582 24.725 123.44 24.5 124.157 24.05C124.873 23.5833 125.407 22.9166 125.757 22.05V19.9H121.632C119.382 19.9 118.257 20.6833 118.257 22.25C118.257 23.0166 118.548 23.625 119.132 24.075C119.715 24.5083 120.532 24.725 121.582 24.725Z M138.528 25.2C138.195 25.5 137.778 25.7333 137.278 25.9C136.795 26.05 136.286 26.125 135.753 26.125C134.52 26.125 133.57 25.7916 132.903 25.125C132.236 24.4583 131.903 23.5166 131.903 22.3V14.35H129.553V12.85H131.903V9.97495H133.678V12.85H137.678V14.35H133.678V22.2C133.678 22.9833 133.87 23.5833 134.253 24C134.653 24.4 135.22 24.6 135.953 24.6C136.32 24.6 136.67 24.5416 137.003 24.425C137.353 24.3083 137.653 24.1416 137.903 23.925L138.528 25.2Z M141.009 12.85H142.784V26H141.009V12.85ZM141.909 9.97495C141.542 9.97495 141.234 9.84995 140.984 9.59995C140.734 9.34995 140.609 9.04995 140.609 8.69995C140.609 8.36662 140.734 8.07495 140.984 7.82495C141.234 7.57495 141.542 7.44995 141.909 7.44995C142.276 7.44995 142.584 7.57495 142.834 7.82495C143.084 8.05828 143.209 8.34162 143.209 8.67495C143.209 9.04162 143.084 9.34995 142.834 9.59995C142.584 9.84995 142.276 9.97495 141.909 9.97495Z M152.423 26.125C151.123 26.125 149.956 25.8416 148.923 25.275C147.906 24.7083 147.106 23.9166 146.523 22.9C145.94 21.8666 145.648 20.7083 145.648 19.425C145.648 18.1416 145.94 16.9916 146.523 15.975C147.106 14.9583 147.906 14.1666 148.923 13.6C149.956 13.0333 151.123 12.75 152.423 12.75C153.556 12.75 154.565 12.975 155.448 13.425C156.348 13.8583 157.056 14.5 157.573 15.35L156.248 16.25C155.815 15.6 155.265 15.1166 154.598 14.8C153.931 14.4666 153.206 14.3 152.423 14.3C151.473 14.3 150.615 14.5166 149.848 14.95C149.098 15.3666 148.506 15.9666 148.073 16.75C147.656 17.5333 147.448 18.425 147.448 19.425C147.448 20.4416 147.656 21.3416 148.073 22.125C148.506 22.8916 149.098 23.4916 149.848 23.925C150.615 24.3416 151.473 24.55 152.423 24.55C153.206 24.55 153.931 24.3916 154.598 24.075C155.265 23.7583 155.815 23.275 156.248 22.625L157.573 23.525C157.056 24.375 156.348 25.025 155.448 25.475C154.548 25.9083 153.54 26.125 152.423 26.125Z"
     fill="#e2ddd2"
     id="path2"
     style="fill:#ffffff;fill-opacity:1" />
  <path
     d="M1 1H21.7442C27.5239 1 32.2093 5.68539 32.2093 11.4651C32.2093 17.2448 27.5239 21.9302 21.7442 21.9302H1V1Z M7.32556 12.0698H28.0697C33.8495 12.0698 38.5349 16.7552 38.5349 22.5349C38.5349 28.3147 33.8495 33.0001 28.0697 33.0001H7.32556V12.0698Z"
     stroke="#e2ddd2"
     id="path4"
     style="stroke:#ffffff;stroke-opacity:0.94117647" />
</svg>
